<?xml version="1.0" encoding="UTF-8"?>
<svg width="100pt" height="100pt" version="1.1" viewBox="0 0 100 100" xmlns="http://www.w3.org/2000/svg">
 <path d="m79 30h-1.1016c-0.5-3.3984-3.3984-6-6.8984-6h-50c-3.8984 0-7 3.1016-7 7v38c0 3.8984 3.1016 7 7 7h58c3.8984 0 7-3.1016 7-7v-32c0-3.8984-3.1016-7-7-7zm-4 42h-54c-1.6992 0-3-1.3008-3-3v-38c0-1.6992 1.3008-3 3-3h50c1.6992 0 3 1.3008 3 3v38c0 1.9531 1 3 1 3zm-52-38h46v8h-46zm0 12h20v17h-20zm26 10h20v2h-20zm0 5h20v2h-20zm0-10h20v2h-20zm0-5h20v2h-20z"/>
</svg>
